<?xml version="1.0" encoding="utf-8"?>
<!-- Generator: Adobe Illustrator 24.1.1, SVG Export Plug-In . SVG Version: 6.00 Build 0)  -->
<svg version="1.1" id="Layer_1" xmlns="http://www.w3.org/2000/svg" xmlns:xlink="http://www.w3.org/1999/xlink" x="0px" y="0px"
	 viewBox="0 0 1330 571" style="enable-background:new 0 0 1330 571;" xml:space="preserve">
<style type="text/css">
	.st0{fill:#006837;}
</style>
<g>
	<g>
		<path class="st0" d="M264.48,246.56l-59.26,58.71c-28.19,28.77-47.06,43.16-56.6,43.16c-8.66,0-17.76-11.6-27.3-34.8
			c-9.55-23.19-14.32-43.48-14.32-60.85c0-14.78,1.94-27.28,5.83-37.52c3.88-10.24,10.6-23.52,20.14-39.85
			c13.54-22.03,26.52-40.69,38.95-55.99c12.43-15.29,23.41-27.15,32.96-35.58c9.54-8.42,16.2-12.64,19.98-12.64
			c5.99,0,11.82,3.63,17.48,10.89c5.66,7.26,8.49,14.77,8.49,22.55c0,4.93-3.05,12.83-9.16,23.72
			c-6.11,10.89-15.76,24.69-28.97,41.41c-13.21,16.72-31.58,36.74-55.1,60.07l-6.33,21.38c-1.78,4.15-2.66,7.78-2.66,10.89
			c0,7,3,10.5,8.99,10.5c6.21,0,20.81-9.2,43.78-27.61c22.97-18.4,47.89-43.16,74.75-74.26c10.43-12.18,19.09-22.94,25.97-32.27
			c6.88-9.33,13.09-18.08,18.64-26.24c5.55-8.16,10.15-14.32,13.82-18.47c3.66-4.14,6.93-6.35,9.82-6.61
			c5.55-0.78,9.87,1.94,12.98,8.16c3.11,6.22,4.66,15.43,4.66,27.61c0,7-2.66,15.75-7.99,26.24c-5.33,10.5-15.32,28.38-29.96,53.66
			c-14.65,25.27-29.25,51.46-43.78,78.54c-14.54,27.09-29.36,57.61-44.45,91.57c0.67-0.78,7.49-8.55,20.48-23.33
			c12.98-14.77,26.69-30.19,41.12-46.27c14.43-16.07,26.3-28.97,35.62-38.69c9.32-9.72,20.98-21.06,34.96-34.02v26.05
			c-29.96,37.59-57.1,73.23-81.4,106.92s-43.06,60.65-56.27,80.87c-13.21,20.22-20.92,32.01-23.14,35.38
			c-5.99,9.07-11.38,17.56-16.15,25.47c-4.78,7.9-8.77,14-11.99,18.27c-3.22,4.28-5.83,6.42-7.82,6.42
			c-4.66,0-8.82-5.38-12.49-16.14c-3.66-10.76-5.49-20.28-5.49-28.58c0-7.52,1.22-14.13,3.66-19.83
			C172.92,423.47,208.77,350.5,264.48,246.56z"/>
		<path class="st0" d="M419.96,245.39v9.72c0,15.3,3.22,27.22,9.66,35.77c6.43,8.56,14.87,12.83,25.3,12.83
			c10.87,0,22.14-2.98,33.79-8.94c11.65-5.96,23.25-13.86,34.79-23.72c11.54-9.85,25.64-23.07,42.28-39.66v23.72
			c-25.09,35.25-48.61,62.28-70.58,81.07c-21.97,18.79-44.28,28.19-66.92,28.19c-19.76,0-35.41-8.94-46.94-26.83
			c-11.54-17.88-17.31-42.38-17.31-73.48c0-27.22,5.44-51.91,16.31-74.07c10.87-22.16,28.63-45.55,53.27-70.18
			c16.87-16.85,33.63-29.55,50.27-38.1s31.51-12.83,44.61-12.83c10.43,0,18.7,2.79,24.8,8.36c6.1,5.58,9.16,13.94,9.16,25.08
			c0,16.33-5.22,32.6-15.65,48.79c-10.44,16.2-26.36,32.27-47.78,48.21C477.62,215.26,451.26,230.62,419.96,245.39z M423.29,220.12
			c19.98-9.07,37.07-20.35,51.27-33.83c14.2-13.47,24.69-26.37,31.46-38.69c6.77-12.31,10.15-21.32,10.15-27.02
			c0-5.96-2.33-8.94-6.99-8.94c-4,0-10.49,2.98-19.48,8.94c-8.99,5.97-18.09,13.74-27.3,23.33c-9.21,9.59-17.48,20.87-24.8,33.83
			C430.29,190.7,425.51,204.83,423.29,220.12z"/>
		<path class="st0" d="M779.87,230.62v26.05c-14.65,15.55-26.42,25.92-35.29,31.1c-8.88,5.19-21.64,7.26-38.29,6.22
			c-28.86,39.92-54.27,59.88-76.24,59.88c-12.43,0-23.75-4.79-33.96-14.39c-10.21-9.59-18.37-22.68-24.47-39.27
			c-6.11-16.58-9.16-35.12-9.16-55.6c0-16.58,4.71-34.99,14.15-55.21c9.43-20.22,21.64-39.07,36.62-56.57
			c14.98-17.5,31.02-31.62,48.11-42.38c17.09-10.75,32.96-16.14,47.61-16.14c10.43,0,18.65,1.88,24.64,5.64
			c5.99,3.76,8.99,9.01,8.99,15.75c0,5.19-2.55,11.15-7.66,17.89c8.43,2.08,14.2,5.51,17.31,10.3c3.11,4.8,4.66,13.55,4.66,26.25
			c0,12.44-2.5,28.13-7.49,47.05c-4.99,18.92-11.82,36.68-20.48,53.27l5.99,7h4.99c3.77,0,7.49-1.1,11.15-3.3
			c3.66-2.2,6.93-4.53,9.82-7C763.78,244.68,770.11,239.17,779.87,230.62z M711.29,128.36c-18.43,12.96-34.18,24.69-47.28,35.19
			c-13.1,10.5-24.2,21.13-33.29,31.88c-9.1,10.76-15.21,21.58-18.31,32.47c-5.55,29.03-8.32,44.71-8.32,47.04
			c0,17.11,10.21,25.66,30.63,25.66c9.54,0,25.52-9.59,47.94-28.77c-3.78-12.18-5.66-23.84-5.66-34.99
			c0-16.33,2.88-32.98,8.66-49.96C691.42,169.9,699.97,150.4,711.29,128.36z"/>
		<path class="st0" d="M1003.61,161.02c-39.07,50.81-58.6,86.19-58.6,106.15c0,11.15,3.88,16.72,11.65,16.72
			c6.43,0,14.82-3.95,25.14-11.86c10.32-7.9,26.47-21.97,48.44-42.19v26.83c-31.52,36.29-55.72,62.47-72.58,78.54
			c-16.87,16.07-30.63,24.11-41.28,24.11c-18.2,0-27.3-14-27.3-41.99c0-8.29,1.11-16.46,3.33-24.49c2.22-8.03,5.27-16.39,9.16-25.08
			c3.88-8.68,9.82-21.12,17.81-37.33c7.99-16.2,17.2-34.54,27.63-55.02c-12.65,7.52-28.52,22.42-47.61,44.71
			c-12.43,14-22.97,27.28-31.63,39.85c-8.66,12.58-17.93,26.57-27.8,41.99c-9.88,15.42-17.09,25.79-21.64,31.1
			c-4.55,5.31-9.16,7.97-13.82,7.97c-7.11,0-13.65-8.68-19.64-26.05c-5.99-17.36-8.99-37.58-8.99-60.66
			c0-14.25,1.38-25.4,4.16-33.44c2.77-8.03,8.27-19.44,16.48-34.22c15.32-27.47,28.52-47.63,39.62-60.46
			c11.1-12.83,21.75-19.24,31.96-19.24c7.1,0,12.82,1.43,17.15,4.28c4.33,2.86,6.49,7.26,6.49,13.22c0,2.59-0.67,5.31-2,8.16
			c-1.33,2.86-2.83,5.44-4.49,7.78c-1.67,2.33-5.16,6.87-10.49,13.61c-35.07,45.36-52.61,74.79-52.61,88.26
			c0,7.52,2.11,11.27,6.33,11.27c2.66,0,7.82-4.99,15.48-14.97c7.66-9.97,17.53-23.07,29.63-39.27
			c12.09-16.2,26.41-33.11,42.95-50.74c16.53-17.62,35.34-34.6,56.43-50.93c11.76-9.59,21.53-14.39,29.3-14.39
			c3.55,0,7.04,5.71,10.49,17.11c3.44,11.41,5.16,22.94,5.16,34.6C1017.93,140.68,1013.15,149.36,1003.61,161.02z"/>
	</g>
	<g>
		<polygon class="st0" points="1198.24,79.55 1008.99,250.49 1018.98,268.6 1208.23,97.66 		"/>
	</g>
	<g>
		<path class="st0" d="M1222.67,57.89L1250.12,34l-11.49,39.56L1265,97.91l-34.31-0.66l-11.87,39.57l-8.52-39.56l-31.81-0.91
			l27-23.5l-7.8-37.95L1222.67,57.89z"/>
	</g>
</g>
</svg>
