<?xml version="1.0" encoding="utf-8"?>
<!-- Generator: Adobe Illustrator 24.1.1, SVG Export Plug-In . SVG Version: 6.00 Build 0)  -->
<svg version="1.1" id="Layer_1" xmlns="http://www.w3.org/2000/svg" xmlns:xlink="http://www.w3.org/1999/xlink" x="0px" y="0px"
	 viewBox="0 0 1015 440" style="enable-background:new 0 0 1015 440;" xml:space="preserve">
<style type="text/css">
	.st0{fill:#FFFFFF;stroke:#006837;stroke-width:5;stroke-miterlimit:10;}
</style>
<g>
	<g>
		<path class="st0" d="M170.55,199.28l-49.13,47.58c-23.37,23.32-39.01,34.98-46.92,34.98c-7.18,0-14.72-9.4-22.63-28.2
			C43.95,234.84,40,218.39,40,204.32c0-11.98,1.61-22.11,4.83-30.41c3.22-8.3,8.79-19.07,16.7-32.3
			c11.22-17.85,21.99-32.98,32.29-45.38c10.3-12.39,19.41-22,27.33-28.83c7.91-6.82,13.43-10.24,16.56-10.24
			c4.97,0,9.8,2.94,14.49,8.82c4.69,5.88,7.04,11.97,7.04,18.28c0,3.99-2.53,10.4-7.59,19.22c-5.06,8.82-13.07,20.01-24.01,33.56
			c-10.95,13.55-26.18,29.78-45.68,48.69l-5.24,17.33c-1.48,3.36-2.21,6.3-2.21,8.82c0,5.67,2.48,8.51,7.45,8.51
			c5.15,0,17.25-7.45,36.3-22.37c19.05-14.91,39.7-34.98,61.97-60.19c8.65-9.87,15.82-18.59,21.53-26.16
			c5.7-7.56,10.85-14.65,15.46-21.27c4.6-6.62,8.42-11.61,11.45-14.97c3.04-3.36,5.75-5.15,8.14-5.36c4.6-0.63,8.19,1.58,10.76,6.62
			c2.57,5.04,3.86,12.5,3.86,22.37c0,5.67-2.21,12.76-6.62,21.27c-4.42,8.51-12.7,23-24.84,43.49
			c-12.14,20.48-24.25,41.7-36.3,63.65c-12.05,21.96-24.34,46.69-36.85,74.21c0.55-0.63,6.21-6.93,16.97-18.91
			c10.76-11.97,22.12-24.47,34.09-37.5c11.96-13.02,21.81-23.48,29.53-31.35c7.73-7.88,17.39-17.07,28.98-27.57v21.11
			c-24.84,30.46-47.34,59.35-67.49,86.66s-35.7,49.16-46.65,65.55c-10.95,16.39-17.35,25.94-19.18,28.68
			c-4.97,7.35-9.43,14.23-13.39,20.64c-3.96,6.41-7.27,11.35-9.94,14.81c-2.67,3.47-4.83,5.2-6.49,5.2
			c-3.86,0-7.31-4.36-10.35-13.08c-3.04-8.72-4.55-16.44-4.55-23.16c0-6.1,1.01-11.45,3.04-16.07
			C94.65,342.66,124.37,283.52,170.55,199.28z"/>
		<path class="st0" d="M299.45,198.33v7.88c0,12.4,2.67,22.06,8,28.99c5.33,6.93,12.33,10.4,20.98,10.4
			c9.01,0,18.35-2.41,28.02-7.25c9.66-4.83,19.27-11.24,28.84-19.22c9.57-7.98,21.25-18.7,35.05-32.14v19.22
			c-20.8,28.57-40.3,50.47-58.52,65.7c-18.22,15.23-36.71,22.85-55.48,22.85c-16.38,0-29.35-7.25-38.92-21.74
			c-9.57-14.5-14.35-34.35-14.35-59.56c0-22.06,4.51-42.07,13.52-60.03c9.01-17.96,23.74-36.92,44.16-56.88
			c13.98-13.65,27.88-23.95,41.68-30.88c13.8-6.93,26.13-10.4,36.99-10.4c8.65,0,15.5,2.26,20.56,6.77
			c5.06,4.52,7.59,11.3,7.59,20.33c0,13.24-4.33,26.42-12.97,39.55c-8.65,13.13-21.85,26.16-39.61,39.08
			C347.25,173.91,325.4,186.36,299.45,198.33z M302.21,177.85c16.56-7.35,30.73-16.49,42.51-27.42
			c11.77-10.92,20.47-21.37,26.08-31.35c5.61-9.98,8.42-17.28,8.42-21.9c0-4.83-1.93-7.25-5.8-7.25c-3.31,0-8.69,2.42-16.15,7.25
			c-7.45,4.84-15,11.14-22.63,18.91c-7.64,7.77-14.49,16.91-20.56,27.42C308.01,154.01,304.05,165.45,302.21,177.85z"/>
		<path class="st0" d="M597.82,186.36v21.11c-12.14,12.6-21.9,21.01-29.26,25.21c-7.36,4.21-17.94,5.88-31.74,5.04
			c-23.92,32.36-44.99,48.53-63.21,48.53c-10.31,0-19.69-3.88-28.15-11.66c-8.47-7.77-15.23-18.38-20.29-31.83
			c-5.06-13.44-7.59-28.46-7.59-45.06c0-13.44,3.91-28.36,11.73-44.75c7.82-16.39,17.94-31.67,30.36-45.85
			c12.42-14.18,25.71-25.63,39.88-34.35c14.17-8.71,27.33-13.08,39.47-13.08c8.65,0,15.46,1.53,20.43,4.57
			c4.97,3.05,7.45,7.3,7.45,12.76c0,4.21-2.12,9.04-6.35,14.5c6.99,1.68,11.77,4.47,14.35,8.35c2.57,3.89,3.86,10.98,3.86,21.27
			c0,10.08-2.07,22.8-6.21,38.13c-4.14,15.34-9.8,29.73-16.97,43.17l4.97,5.67h4.14c3.13,0,6.21-0.89,9.25-2.68
			c3.04-1.78,5.75-3.67,8.14-5.67C584.48,197.75,589.72,193.29,597.82,186.36z M540.96,103.48c-15.28,10.51-28.34,20.01-39.19,28.52
			c-10.86,8.51-20.06,17.13-27.6,25.84c-7.55,8.72-12.61,17.49-15.18,26.31c-4.6,23.53-6.9,36.24-6.9,38.13
			c0,13.87,8.46,20.8,25.39,20.8c7.91,0,21.16-7.77,39.75-23.32c-3.13-9.87-4.69-19.33-4.69-28.36c0-13.24,2.39-26.73,7.18-40.49
			C524.49,137.15,531.58,121.34,540.96,103.48z"/>
		<path class="st0" d="M783.31,129.95c-32.39,41.18-48.58,69.85-48.58,86.03c0,9.04,3.22,13.55,9.66,13.55
			c5.33,0,12.28-3.2,20.84-9.61c8.56-6.41,21.94-17.8,40.16-34.19v21.74c-26.13,29.42-46.19,50.63-60.17,63.66
			c-13.99,13.03-25.39,19.54-34.22,19.54c-15.09,0-22.63-11.34-22.63-34.03c0-6.72,0.92-13.34,2.76-19.85
			c1.84-6.51,4.37-13.29,7.59-20.33c3.22-7.04,8.14-17.12,14.77-30.25c6.62-13.13,14.26-27.99,22.91-44.59
			c-10.49,6.1-23.65,18.17-39.47,36.24c-10.31,11.35-19.04,22.11-26.22,32.3c-7.18,10.19-14.86,21.54-23.05,34.03
			c-8.19,12.5-14.17,20.91-17.94,25.21c-3.77,4.31-7.59,6.46-11.46,6.46c-5.89,0-11.32-7.04-16.28-21.11
			c-4.97-14.07-7.45-30.46-7.45-49.16c0-11.55,1.15-20.59,3.45-27.1c2.3-6.51,6.85-15.76,13.66-27.73
			c12.7-22.27,23.64-38.6,32.85-49c9.2-10.4,18.03-15.6,26.5-15.6c5.89,0,10.63,1.16,14.22,3.47c3.59,2.31,5.38,5.88,5.38,10.71
			c0,2.1-0.55,4.31-1.66,6.62c-1.1,2.31-2.35,4.41-3.73,6.3c-1.38,1.89-4.28,5.57-8.69,11.03c-29.08,36.77-43.61,60.61-43.61,71.53
			c0,6.1,1.75,9.14,5.25,9.14c2.21,0,6.49-4.04,12.83-12.13c6.35-8.08,14.53-18.7,24.56-31.83c10.03-13.13,21.9-26.83,35.61-41.12
			c13.71-14.28,29.3-28.05,46.79-41.28c9.75-7.77,17.85-11.66,24.29-11.66c2.94,0,5.84,4.62,8.69,13.87
			c2.85,9.25,4.28,18.59,4.28,28.05C795.17,113.46,791.21,120.5,783.31,129.95z"/>
	</g>
	<g>
		<polygon class="st0" points="944.66,63.92 787.76,202.46 796.04,217.14 952.94,78.6 		"/>
	</g>
	<g>
		<path class="st0" d="M964.91,46.36L987.66,27l-9.52,32.06L1000,78.8l-28.44-0.54l-9.84,32.07l-7.06-32.06l-26.37-0.74l22.38-19.05
			l-6.47-30.76L964.91,46.36z"/>
	</g>
</g>
</svg>
